<svg xmlns="http://www.w3.org/2000/svg" version="1.1" xmlns:xlink="http://www.w3.org/1999/xlink" xmlns:svgjs="http://svgjs.dev/svgjs" width="1440" height="900" preserveAspectRatio="none" viewBox="0 0 1440 900">
    <g mask="url(&quot;#SvgjsMask1044&quot;)" fill="none">
        <rect width="1440" height="900" x="0" y="0" fill="rgba(120, 66, 18, 1)"></rect>
        <path d="M0,511.182C102.691,520.013,204.093,504.956,299.583,466.161C410.575,421.068,540.043,378.296,592.359,270.521C644.781,162.527,582.858,37.476,565.322,-81.281C547.862,-199.524,583.344,-350.032,489.748,-424.369C392.895,-501.292,248.621,-411.976,126.258,-429.996C27.812,-444.494,-57.053,-547.498,-152.372,-518.93C-247.722,-490.353,-271.86,-367.271,-336.265,-291.375C-399.79,-216.516,-491.639,-167.043,-528.277,-75.955C-570.273,28.451,-607.993,154.144,-555.509,253.692C-503.046,353.201,-370.266,370.028,-268.205,417.335C-180.494,457.991,-96.32,502.899,0,511.182" fill="#532e0c"></path>
        <path d="M1440 1435.1860000000001C1537.75 1422.539 1601.492 1331.583 1675.592 1266.589 1738.7939999999999 1211.154 1810.056 1161.312 1841.25 1083.245 1871.745 1006.927 1845.657 923.902 1845.363 841.718 1845.013 743.793 1891.513 636.835 1839.359 553.953 1786.654 470.195 1678.442 436.128 1580.6399999999999 421.025 1489.5 406.95 1404.057 450.522 1314.597 472.915 1220.777 496.4 1112.658 488.966 1042.6480000000001 555.692 971.0409999999999 623.941 958.621 730.892 941.6700000000001 828.351 924.269 928.4 902.734 1033.739 943.312 1126.83 984.1469999999999 1220.51 1074.857 1279.176 1161.679 1333.077 1247.371 1386.277 1339.971 1448.127 1440 1435.1860000000001" fill="#9d5718"></path>
    </g>
    <defs>
        <mask id="SvgjsMask1044">
            <rect width="1440" height="900" fill="#ffffff"></rect>
        </mask>
    </defs>
</svg>