<svg xmlns="http://www.w3.org/2000/svg" version="1.1" xmlns:xlink="http://www.w3.org/1999/xlink" xmlns:svgjs="http://svgjs.dev/svgjs" width="1440" height="560" preserveAspectRatio="none" viewBox="0 0 1440 560">
    <g mask="url(&quot;#SvgjsMask1006&quot;)" fill="none">
        <rect width="1440" height="560" x="0" y="0" fill="rgba(120, 66, 18, 1)"></rect>
        <path d="M0,468.344C90.911,466.122,187.605,459.421,259.299,403.477C328.934,349.14,343.178,253.813,378.615,172.907C413.423,93.437,476.306,19.157,465.324,-66.904C454.306,-153.249,374.506,-209.494,321.051,-278.192C264.218,-351.232,231.057,-458.481,141.749,-482.752C52.389,-507.038,-34.715,-440.36,-116.61,-397.138C-184.953,-361.069,-239.573,-309.754,-292.583,-253.525C-347.894,-194.856,-419.206,-141.714,-432.401,-62.17C-445.66,17.76,-388.451,88.745,-362.065,165.35C-332.348,251.625,-337.554,357.795,-267.576,416.356C-196.456,475.873,-92.71,470.61,0,468.344" fill="#60350e"></path>
        <path d="M1440 856.116C1508.436 853.283 1577.062 897.6510000000001 1640.675 872.256 1707.634 845.5260000000001 1754.305 782.77 1785.975 718.001 1818.162 652.176 1837.738 576.466 1820.083 505.352 1803.041 436.706 1746.779 386.538 1692.445 341.255 1644.6 301.38 1584.972 285.887 1527.617 261.605 1461.805 233.743 1397.35 162.06099999999998 1330.817 188.156 1262.703 214.87099999999998 1277.606 322.477 1230.239 378.241 1183.634 433.108 1077.595 435.438 1061.221 505.54 1045.186 574.19 1129.519 624.302 1157.667 688.937 1186.532 755.219 1166.149 852.491 1228.355 889.326 1291.073 926.463 1367.174 859.131 1440 856.116" fill="#904f16"></path>
    </g>
    <defs>
        <mask id="SvgjsMask1006">
            <rect width="1440" height="560" fill="#ffffff"></rect>
        </mask>
    </defs>
</svg>